<svg width="154" height="231" viewBox="0 0 87 130" fill="none" xmlns="http://www.w3.org/2000/svg">
<rect opacity="0.7" x="0.5" y="0.5" width="85.7" height="129" fill="#C4C4C4" stroke="#C4C4C4"/>
<path d="M43.1445 28H42.0137L37.7188 21.4258V28H36.5879V19.4688H37.7188L42.0254 26.0723V19.4688H43.1445V28ZM51.7051 24.0098C51.7051 24.8457 51.5645 25.5762 51.2832 26.2012C51.002 26.8223 50.6035 27.2969 50.0879 27.625C49.5723 27.9531 48.9707 28.1172 48.2832 28.1172C47.6113 28.1172 47.0156 27.9531 46.4961 27.625C45.9766 27.293 45.5723 26.8223 45.2832 26.2129C44.998 25.5996 44.8516 24.8906 44.8438 24.0859V23.4707C44.8438 22.6504 44.9863 21.9258 45.2715 21.2969C45.5566 20.668 45.959 20.1875 46.4785 19.8555C47.002 19.5195 47.5996 19.3516 48.2715 19.3516C48.9551 19.3516 49.5566 19.5176 50.0762 19.8496C50.5996 20.1777 51.002 20.6562 51.2832 21.2852C51.5645 21.9102 51.7051 22.6387 51.7051 23.4707V24.0098ZM50.5859 23.459C50.5859 22.4473 50.3828 21.6719 49.9766 21.1328C49.5703 20.5898 49.002 20.3184 48.2715 20.3184C47.5605 20.3184 47 20.5898 46.5898 21.1328C46.1836 21.6719 45.9746 22.4219 45.9629 23.3828V24.0098C45.9629 24.9902 46.168 25.7617 46.5781 26.3242C46.9922 26.8828 47.5605 27.1621 48.2832 27.1621C49.0098 27.1621 49.5723 26.8984 49.9707 26.3711C50.3691 25.8398 50.5742 25.0801 50.5859 24.0918V23.459ZM27.8926 42H26.7676V33.4688H27.8926V42ZM31.4082 33.4688L34.1973 40.4297L36.9863 33.4688H38.4453V42H37.3203V38.6777L37.4258 35.0918L34.625 42H33.7637L30.9688 35.1094L31.0801 38.6777V42H29.9551V33.4688H31.4082ZM45.248 39.7734H41.6738L40.8711 42H39.7109L42.9688 33.4688H43.9531L47.2168 42H46.0625L45.248 39.7734ZM42.0137 38.8477H44.9141L43.4609 34.8574L42.0137 38.8477ZM54.5938 40.8809C54.3047 41.2949 53.9004 41.6055 53.3809 41.8125C52.8652 42.0156 52.2637 42.1172 51.5762 42.1172C50.8809 42.1172 50.2637 41.9551 49.7246 41.6309C49.1855 41.3027 48.7676 40.8379 48.4707 40.2363C48.1777 39.6348 48.0273 38.9375 48.0195 38.1445V37.4004C48.0195 36.1152 48.3184 35.1191 48.916 34.4121C49.5176 33.7051 50.3613 33.3516 51.4473 33.3516C52.3379 33.3516 53.0547 33.5801 53.5977 34.0371C54.1406 34.4902 54.4727 35.1348 54.5938 35.9707H53.4688C53.2578 34.8418 52.5859 34.2773 51.4531 34.2773C50.6992 34.2773 50.127 34.543 49.7363 35.0742C49.3496 35.6016 49.1543 36.3672 49.1504 37.3711V38.0684C49.1504 39.0254 49.3691 39.7871 49.8066 40.3535C50.2441 40.916 50.8359 41.1973 51.582 41.1973C52.0039 41.1973 52.373 41.1504 52.6895 41.0566C53.0059 40.9629 53.2676 40.8047 53.4746 40.582V38.666H51.5V37.752H54.5938V40.8809ZM61.2969 38.0566H57.5996V41.0801H61.8945V42H56.4746V33.4688H61.8359V34.3945H57.5996V37.1367H61.2969V38.0566ZM19.3203 53.7734H15.7461L14.9434 56H13.7832L17.041 47.4688H18.0254L21.2891 56H20.1348L19.3203 53.7734ZM16.0859 52.8477H18.9863L17.5332 48.8574L16.0859 52.8477ZM24.7461 54.5059L27.1836 47.4688H28.4141L25.25 56H24.2539L21.0957 47.4688H22.3203L24.7461 54.5059ZM33.8281 53.7734H30.2539L29.4512 56H28.291L31.5488 47.4688H32.5332L35.7969 56H34.6426L33.8281 53.7734ZM30.5938 52.8477H33.4941L32.041 48.8574L30.5938 52.8477ZM38.1523 56H37.0273V47.4688H38.1523V56ZM41.3457 55.0801H45.3887V56H40.2148V47.4688H41.3457V55.0801ZM51.5 53.7734H47.9258L47.123 56H45.9629L49.2207 47.4688H50.2051L53.4688 56H52.3145L51.5 53.7734ZM48.2656 52.8477H51.166L49.7129 48.8574L48.2656 52.8477ZM54.6172 56V47.4688H57.4062C58.332 47.4688 59.0273 47.6602 59.4922 48.043C59.9609 48.4258 60.1953 48.9922 60.1953 49.7422C60.1953 50.1406 60.082 50.4941 59.8555 50.8027C59.6289 51.1074 59.3203 51.3438 58.9297 51.5117C59.3906 51.6406 59.7539 51.8867 60.0195 52.25C60.2891 52.6094 60.4238 53.0391 60.4238 53.5391C60.4238 54.3047 60.1758 54.9062 59.6797 55.3438C59.1836 55.7812 58.4824 56 57.5762 56H54.6172ZM55.7422 52.0098V55.0801H57.5996C58.123 55.0801 58.5352 54.9453 58.8359 54.6758C59.1406 54.4023 59.293 54.0273 59.293 53.5508C59.293 52.5234 58.7344 52.0098 57.6172 52.0098H55.7422ZM55.7422 51.1074H57.4414C57.9336 51.1074 58.3262 50.9844 58.6191 50.7383C58.916 50.4922 59.0645 50.1582 59.0645 49.7363C59.0645 49.2676 58.9277 48.9277 58.6543 48.7168C58.3809 48.502 57.9648 48.3945 57.4062 48.3945H55.7422V51.1074ZM63.2246 55.0801H67.2676V56H62.0938V47.4688H63.2246V55.0801ZM73.373 52.0566H69.6758V55.0801H73.9707V56H68.5508V47.4688H73.9121V48.3945H69.6758V51.1367H73.373V52.0566Z" fill="black"/>
</svg>
